<svg xmlns="http://www.w3.org/2000/svg" width="96.837" height="78.175" viewBox="0 0 96.837 78.175">
  <g id="Group_2466" data-name="Group 2466" transform="translate(3919.837 -1468.225)">
    <path id="Path_3951" data-name="Path 3951" d="M19.977,26.014a25.609,25.609,0,0,0,2.172,4.765,11.676,11.676,0,0,0,2.789,3.036,30.959,30.959,0,0,0,3.551,1.779,16.989,16.989,0,0,0,4.785.484c5.084.115,11.021-2.263,11.021-2.263S47.74,41.157,49.687,45.2s1.965,3.989,2.4,4.8a18.984,18.984,0,0,0,1.124,1.874A7.425,7.425,0,0,0,55.267,53.9,4.72,4.72,0,0,0,57.2,52.678a6.292,6.292,0,0,0,1.339-1.59l.966-1.466,1.114-1.63s.581-.834,1.023-1.327a2.957,2.957,0,0,1,.743-.646,2.688,2.688,0,0,1,.825-.4l1.623-.416,2.621-.672c.841-.216,1.927-.489,5.064-1.469a23.951,23.951,0,0,0,5.441-2.529A18.511,18.511,0,0,0,80.515,38.6,13.1,13.1,0,0,0,82,37.021a13.348,13.348,0,0,0,1.027-2.074,6.83,6.83,0,0,0,.486-2.267,12.53,12.53,0,0,0-.584-2.617,12.412,12.412,0,0,0,6.524-3.249l.926-1.037.734-.977c.05-.046.28-.413.524-.789l.46-.939a9.568,9.568,0,0,0,.764-2.067c.195-.864.235-.751.424-1.879.135-1.09.216-2.029.216-2.029V15.068c-.081-1.3-.216-2.367-.216-2.367A12.074,12.074,0,0,0,92.859,10c-.181-.889-.386-1.97-.386-1.97s-.19-.882-.378-1.715l-.46-1.461-.524-1.607c-.5-1.27-.977-2.477-.977-2.477-.335-.959-.371-.578-1.2-2.348a30.772,30.772,0,0,0-2.1-3.645C85.793-6.684,85.269-7.309,84-8.836A33.076,33.076,0,0,0,79.276-13.5c-.83-.641-2.017-1.561-3.221-2.418a30.759,30.759,0,0,0-3-1.874c-1.055-.7-3.795-2.027-3.795-2.027S65.8-21.154,65.2-21.4s-3-.972-3-.972-2.553-.743-3.751-.929-2.247-.549-3.446-.668-2.846-.307-2.846-.307l-3.468,0-2.226,0c.181.006-2.622,0-2.622,0-.427.049-3.345.154-3.958.307a31.255,31.255,0,0,0-3.5.368l-2.651.3s-2.42.427-3.457.641-2.919.7-2.919.7a47.417,47.417,0,0,0-4.944,1.6s-1.648.694-3.671,1.527a25.228,25.228,0,0,0-3.6,1.8c-.854.4-2.068,1.253-3.194,1.944-.43.259-1.222.856-2.363,1.585,0,0-1.051.748-1.959,1.442s-1.671,1.335-1.671,1.335L4.443-9.357,3.1-8.072,1.9-6.684C1.073-5.573.923-5.3.1-4.115A11.546,11.546,0,0,0-1.324-1.582,20.138,20.138,0,0,0-2.316.744a15.233,15.233,0,0,0-.7,2.458A9.509,9.509,0,0,0-3.313,5.43c-.035.4-.031,1.78,0,2.707.014.656.136,1.148.292,2.43a11.742,11.742,0,0,0,.7,2.154l.543,1.039,1.049,1.7C-.2,16.156.3,16.656,1.3,17.787a19.8,19.8,0,0,0,2.472,2.36,9.417,9.417,0,0,0,2.2,1.8c.53.385,1.486.837,2.445,1.4a15.026,15.026,0,0,0,3.547,1.542,25.759,25.759,0,0,0,8.016,1.13" transform="translate(-3916.5 1492.5)" fill="#fff"/>
    <circle id="Ellipse_1156" data-name="Ellipse 1156" cx="5" cy="5" r="5" transform="translate(-3884 1477)" fill="#ff0"/>
    <circle id="Ellipse_1157" data-name="Ellipse 1157" cx="5" cy="5" r="5" transform="translate(-3867 1477)" fill="blue"/>
    <circle id="Ellipse_1158" data-name="Ellipse 1158" cx="5" cy="5" r="5" transform="translate(-3867 1507)" fill="#8b00ff"/>
    <circle id="Ellipse_1159" data-name="Ellipse 1159" cx="5" cy="5" r="5" transform="translate(-3884 1507)" fill="red"/>
    <circle id="Ellipse_1160" data-name="Ellipse 1160" cx="5" cy="5" r="5" transform="translate(-3876 1493)" fill="lime"/>
    <circle id="Ellipse_1161" data-name="Ellipse 1161" cx="5" cy="5" r="5" transform="translate(-3859 1493)" fill="#2e2b5f"/>
    <path id="Path_3953" data-name="Path 3953" d="M5,0A5,5,0,1,1,0,5,5,5,0,0,1,5,0Z" transform="translate(-3892 1493)" fill="#ff7f00"/>
  </g>
</svg>
