<svg xmlns="http://www.w3.org/2000/svg" width="100" height="100" viewBox="0 0 100 100">
  <g id="Group_2465" data-name="Group 2465" transform="translate(3919 -1447)">
    <circle id="Ellipse_1163" data-name="Ellipse 1163" cx="50" cy="50" r="50" transform="translate(-3919 1447)"/>
    <g id="Group_2464" data-name="Group 2464" transform="translate(18)">
      <path id="Path_3951" data-name="Path 3951" d="M12.453,12.477a19.493,19.493,0,0,0,1.471,3.482,8.283,8.283,0,0,0,1.889,2.219,20.424,20.424,0,0,0,2.405,1.3,10.7,10.7,0,0,0,3.241.354,21.213,21.213,0,0,0,7.464-1.654s2.334,5.366,3.653,8.322,1.331,2.915,1.624,3.5a14.144,14.144,0,0,0,.761,1.37,5.206,5.206,0,0,0,1.394,1.482,3.184,3.184,0,0,0,1.31-.893,4.554,4.554,0,0,0,.907-1.162l.654-1.072.754-1.191s.394-.609.693-.97a2.053,2.053,0,0,1,.5-.472,1.761,1.761,0,0,1,.559-.291l1.1-.3,1.775-.491c.569-.158,1.305-.357,3.43-1.073a15.683,15.683,0,0,0,3.685-1.848,12.665,12.665,0,0,0,1.731-1.412,9.312,9.312,0,0,0,1-1.154,10.1,10.1,0,0,0,.7-1.515,5.334,5.334,0,0,0,.329-1.656,9.77,9.77,0,0,0-.4-1.913,8.142,8.142,0,0,0,4.419-2.374l.627-.758.5-.714c.034-.033.189-.3.355-.577l.312-.687a7.348,7.348,0,0,0,.517-1.51c.132-.632.159-.549.287-1.373.091-.8.146-1.483.146-1.483V4.478c-.055-.948-.146-1.73-.146-1.73A9.466,9.466,0,0,0,61.816.77c-.122-.65-.261-1.44-.261-1.44s-.129-.644-.256-1.253L60.987-2.99l-.355-1.174c-.337-.928-.662-1.81-.662-1.81-.227-.7-.251-.423-.81-1.716a22.963,22.963,0,0,0-1.421-2.664c-.71-1.065-1.065-1.522-1.928-2.638a23.33,23.33,0,0,0-3.2-3.408c-.562-.468-1.366-1.141-2.181-1.767a20.627,20.627,0,0,0-2.03-1.37c-.714-.511-2.57-1.482-2.57-1.482s-2.347-.976-2.753-1.153-2.029-.71-2.029-.71-1.729-.543-2.541-.679-1.522-.4-2.334-.488-1.928-.224-1.928-.224l-2.349,0-1.507,0c.122,0-1.776,0-1.776,0-.289.036-2.266.112-2.681.224a19.675,19.675,0,0,0-2.367.269l-1.8.219s-1.639.312-2.342.468-1.977.512-1.977.512a30.437,30.437,0,0,0-3.348,1.167s-1.116.507-2.486,1.116a16.624,16.624,0,0,0-2.435,1.319c-.578.289-1.4.915-2.164,1.421-.291.189-.828.626-1.6,1.158,0,0-.712.546-1.327,1.054s-1.132.976-1.132.976l-1.033,1-.913.939L.208-11.419c-.558.812-.66,1.015-1.218,1.877A8.656,8.656,0,0,0-1.974-7.69a15.357,15.357,0,0,0-.672,1.7,11.815,11.815,0,0,0-.477,1.8,7.468,7.468,0,0,0-.2,1.628c-.024.294-.021,1.3,0,1.979.01.479.092.839.2,1.776a9.074,9.074,0,0,0,.477,1.574l.368.76.71,1.243c.355.507.693.873,1.37,1.7A13.911,13.911,0,0,0,1.476,8.189,6.545,6.545,0,0,0,2.965,9.5c.359.282,1.007.612,1.656,1.021a9.777,9.777,0,0,0,2.4,1.127,16.272,16.272,0,0,0,5.429.826" transform="translate(-3916.5 1492.5)" fill="#fff" stroke="#707070" stroke-width="1"/>
      <circle id="Ellipse_1156" data-name="Ellipse 1156" cx="5" cy="5" r="5" transform="translate(-3898 1474)" fill="#e7dc00"/>
      <circle id="Ellipse_1157" data-name="Ellipse 1157" cx="5" cy="5" r="5" transform="translate(-3885 1474)" fill="#00a650"/>
      <circle id="Ellipse_1158" data-name="Ellipse 1158" cx="5" cy="5" r="5" transform="translate(-3885 1496)" fill="#845ba6"/>
      <circle id="Ellipse_1159" data-name="Ellipse 1159" cx="5" cy="5" r="5" transform="translate(-3898 1496)" fill="#ed1c24"/>
      <circle id="Ellipse_1160" data-name="Ellipse 1160" cx="5" cy="5" r="5" transform="translate(-3892 1485)" fill="#a7a9ac"/>
      <circle id="Ellipse_1161" data-name="Ellipse 1161" cx="5" cy="5" r="5" transform="translate(-3879 1485)" fill="#28aae1"/>
      <circle id="Ellipse_1162" data-name="Ellipse 1162" cx="5" cy="5" r="5" transform="translate(-3904 1485)" fill="#f7931d"/>
    </g>
  </g>
</svg>
